<svg width="240" height="240" viewBox="0 0 240 240" fill="none" xmlns="http://www.w3.org/2000/svg">
<mask id="mask0_17_5" style="mask-type:luminance" maskUnits="userSpaceOnUse" x="0" y="0" width="240" height="240">
<path d="M240 0H0V240H240V0Z" fill="white"/>
<path d="M30 154V166C30 188.402 30 199.603 34.3597 208.16C38.1947 215.686 44.3139 221.805 51.8404 225.64C60.3969 230 71.5979 230 94 230H146C168.402 230 179.603 230 188.16 225.64C195.686 221.805 201.805 215.686 205.64 208.16C210 199.603 210 188.402 210 166V154C210 131.598 210 120.397 205.64 111.84C201.805 104.314 195.686 98.1947 188.16 94.3597C179.603 90 168.402 90 146 90H94C71.5979 90 60.3969 90 51.8404 94.3597C44.3139 98.1947 38.1947 104.314 34.3597 111.84C30 120.397 30 131.598 30 154Z" fill="black"/>
</mask>
<g mask="url(#mask0_17_5)">
<path d="M160 120V60C160 37.9086 142.091 20 120 20C97.9086 20 80 37.9086 80 60V120C80 125.523 75.5228 130 70 130C64.4772 130 60 125.523 60 120V60C60 26.8629 86.8629 0 120 0C153.137 0 180 26.8629 180 60V120C180 125.523 175.523 130 170 130C164.477 130 160 125.523 160 120Z" fill="url(#paint0_linear_17_5)"/>
</g>
<mask id="mask1_17_5" style="mask-type:luminance" maskUnits="userSpaceOnUse" x="30" y="90" width="180" height="140">
<path d="M30 154V166C30 188.402 30 199.603 34.3597 208.16C38.1947 215.686 44.3139 221.805 51.8404 225.64C60.3969 230 71.5979 230 94 230H146C168.402 230 179.603 230 188.16 225.64C195.686 221.805 201.805 215.686 205.64 208.16C210 199.603 210 188.402 210 166V154C210 131.598 210 120.397 205.64 111.84C201.805 104.314 195.686 98.1947 188.16 94.3597C179.603 90 168.402 90 146 90H94C71.5979 90 60.3969 90 51.8404 94.3597C44.3139 98.1947 38.1947 104.314 34.3597 111.84C30 120.397 30 131.598 30 154Z" fill="white"/>
</mask>
<g mask="url(#mask1_17_5)">
<g filter="url(#filter0_f_17_5)">
<path d="M160 120V60C160 37.9086 142.091 20 120 20C97.9086 20 80 37.9086 80 60V120C80 125.523 75.5228 130 70 130C64.4772 130 60 125.523 60 120V60C60 26.8629 86.8629 0 120 0C153.137 0 180 26.8629 180 60V120C180 125.523 175.523 130 170 130C164.477 130 160 125.523 160 120Z" fill="url(#paint1_linear_17_5)"/>
</g>
</g>
<path d="M30 154V166C30 188.402 30 199.603 34.3597 208.16C38.1947 215.686 44.3139 221.805 51.8404 225.64C60.3969 230 71.5979 230 94 230H146C168.402 230 179.603 230 188.16 225.64C195.686 221.805 201.805 215.686 205.64 208.16C210 199.603 210 188.402 210 166V154C210 131.598 210 120.397 205.64 111.84C201.805 104.314 195.686 98.1947 188.16 94.3597C179.603 90 168.402 90 146 90H94C71.5979 90 60.3969 90 51.8404 94.3597C44.3139 98.1947 38.1947 104.314 34.3597 111.84C30 120.397 30 131.598 30 154Z" fill="url(#paint2_linear_17_5)"/>
<defs>
<filter id="filter0_f_17_5" x="56" y="-4" width="128" height="138" filterUnits="userSpaceOnUse" color-interpolation-filters="sRGB">
<feFlood flood-opacity="0" result="BackgroundImageFix"/>
<feBlend mode="normal" in="SourceGraphic" in2="BackgroundImageFix" result="shape"/>
<feGaussianBlur stdDeviation="2" result="effect1_foregroundBlur_17_5"/>
</filter>
<linearGradient id="paint0_linear_17_5" x1="120" y1="0" x2="120" y2="130" gradientUnits="userSpaceOnUse">
<stop stop-color="#575757"/>
<stop offset="1" stop-color="#151515"/>
</linearGradient>
<linearGradient id="paint1_linear_17_5" x1="120" y1="0" x2="120" y2="130" gradientUnits="userSpaceOnUse">
<stop stop-color="#575757"/>
<stop offset="1" stop-color="#151515"/>
</linearGradient>
<linearGradient id="paint2_linear_17_5" x1="120" y1="90" x2="120" y2="230" gradientUnits="userSpaceOnUse">
<stop stop-color="#E3E3E5" stop-opacity="0.6"/>
<stop offset="1" stop-color="#BBBBC0" stop-opacity="0.6"/>
</linearGradient>
</defs>
</svg>
